<svg width="239" height="65" viewBox="0 0 239 65" fill="none" xmlns="http://www.w3.org/2000/svg">
<mask id="mask0" mask-type="alpha" maskUnits="userSpaceOnUse" x="0" y="0" width="239" height="26">
<rect width="239" height="25.9257" fill="white"/>
</mask>
<g mask="url(#mask0)">
<path d="M9.21806 34.2732H0L7.28486 0H27.607L26.0275 7.43133H14.9234L13.556 13.9718H23.8349L22.2082 21.4501H11.8821L9.21806 34.2732Z" transform="translate(6.80664)" fill="black"/>
<path d="M39.3713 21.8017L36.7072 34.2732H27.4891L34.774 0H43.8978C47.8585 0 50.8919 0.781423 52.9979 2.34427C55.104 3.90711 56.1571 6.2592 56.1571 9.40052C56.1571 11.8386 55.5991 13.964 54.4832 15.7769C53.3673 17.5898 51.7091 18.9729 49.5088 19.9263L54.7897 32.0227L55.7327 34.2732H45.6895L41.0923 21.8017H39.3713ZM40.8565 14.8392H42.0589C43.552 14.8392 44.7386 14.4173 45.6188 13.5733C46.4989 12.7137 46.939 11.5182 46.939 9.98658C46.939 9.01762 46.664 8.28308 46.1139 7.78297C45.5795 7.26723 44.7936 7.00936 43.7563 7.00936H42.5068L40.8565 14.8392Z" transform="translate(6.80664)" fill="black"/>
<path d="M58.8447 34.2732L66.1296 0H75.4891L68.2042 34.2732H58.8447Z" transform="translate(6.80664)" fill="black"/>
<path d="M96.5185 34.2732H76.0549L83.3397 0H103.803L102.271 7.43133H91.0254L89.9173 12.8231H100.385L98.6875 20.2545H88.2199L86.8761 26.7247H98.1216L96.5185 34.2732Z" transform="translate(6.80664)" fill="black"/>
<path d="M133.532 34.2732H122.805L115.992 10.1741H115.803C115.348 14.722 114.9 17.9884 114.46 19.9732L111.418 34.2732H103.214L110.499 0H121.226L127.968 23.0442H128.181C128.636 19.3558 129.084 16.4568 129.524 14.3469L132.613 0H140.817L133.532 34.2732Z" transform="translate(6.80664)" fill="black"/>
<path d="M172.102 12.9638C172.102 17.3398 171.324 21.1375 169.768 24.3569C168.212 27.5608 165.949 30.0145 162.978 31.718C160.023 33.4215 156.518 34.2732 152.463 34.2732H141.359L148.644 0H158.452C162.79 0 166.145 1.13306 168.518 3.39919C170.907 5.64969 172.102 8.83789 172.102 12.9638ZM153.854 26.6778C155.583 26.6778 157.124 26.1308 158.475 25.0368C159.843 23.9428 160.903 22.3878 161.658 20.3717C162.412 18.34 162.79 16.027 162.79 13.4327C162.79 11.4791 162.365 10.0022 161.516 9.00199C160.668 7.98614 159.481 7.47822 157.957 7.47822H156.283L152.228 26.6778H153.854Z" transform="translate(6.80664)" fill="black"/>
<path d="M174.412 34.2732L181.697 0H190.915L185.233 26.795H196.479L194.876 34.2732H174.412Z" transform="translate(6.80664)" fill="black"/>
<path d="M214.585 12.7059L221.941 0H232.22L217.791 20.9812L214.939 34.2732H205.721L208.55 20.9812L202.962 0H212.463L214.585 12.7059Z" transform="translate(6.80664)" fill="black"/>
</g>
<path d="M0 34.2732L7.28486 0H16.6444L9.35951 34.2732H0Z" transform="translate(0 30.7268)" fill="black"/>
<path d="M47.5284 34.2732H36.8015L29.9882 10.1741H29.7996C29.3438 14.722 28.8958 17.9884 28.4557 19.9732L25.4145 34.2732H17.2102L24.495 0H35.2219L41.9646 23.0442H42.1767C42.6325 19.3558 43.0805 16.4568 43.5206 14.3469L46.609 0H54.8133L47.5284 34.2732Z" transform="translate(0 30.7268)" fill="black"/>
<path d="M69.3594 34.2732H60.1414L65.7288 7.57199H58.2553L59.882 0H84.1177L82.4439 7.57199H74.9468L69.3594 34.2732Z" transform="translate(0 30.7268)" fill="black"/>
<path d="M102.46 34.2732H81.9959L89.2808 0H109.744L108.212 7.43133H96.9664L95.8584 12.8231H106.326L104.629 20.2545H94.1609L92.8171 26.7247H104.063L102.46 34.2732Z" transform="translate(0 30.7268)" fill="black"/>
<path d="M121.037 21.8017L118.373 34.2732H109.155L116.44 0H125.564C129.524 0 132.558 0.781423 134.664 2.34427C136.77 3.90711 137.823 6.2592 137.823 9.40052C137.823 11.8386 137.265 13.964 136.149 15.7769C135.033 17.5898 133.375 18.9729 131.175 19.9263L136.456 32.0227L137.399 34.2732H127.355L122.758 21.8017H121.037ZM122.522 14.8392H123.725C125.218 14.8392 126.405 14.4173 127.285 13.5733C128.165 12.7137 128.605 11.5182 128.605 9.98658C128.605 9.01762 128.33 8.28308 127.78 7.78297C127.245 7.26723 126.46 7.00936 125.422 7.00936H124.173L122.522 14.8392Z" transform="translate(0 30.7268)" fill="black"/>
<path d="M170.876 34.2732H160.149L153.336 10.1741H153.147C152.691 14.722 152.243 17.9884 151.803 19.9732L148.762 34.2732H140.558L147.843 0H158.569L165.312 23.0442H165.524C165.98 19.3558 166.428 16.4568 166.868 14.3469L169.957 0H178.161L170.876 34.2732Z" transform="translate(0 30.7268)" fill="black"/>
<path d="M199.167 34.2732H178.703L185.988 0H206.452L204.919 7.43133H193.674L192.566 12.8231H203.033L201.336 20.2545H190.868L189.524 26.7247H200.77L199.167 34.2732Z" transform="translate(0 30.7268)" fill="black"/>
<path d="M219.866 34.2732H210.648L216.235 7.57199H208.762L210.389 0H234.624L232.951 7.57199H225.453L219.866 34.2732Z" transform="translate(0 30.7268)" fill="black"/>
</svg>
